<svg version="1.1" id="Layer_1" xmlns="http://www.w3.org/2000/svg" xmlns:xlink="http://www.w3.org/1999/xlink" x="0px" y="0px"
	 width="100%" viewBox="0 0 250 70" enable-background="new 0 0 250 70" xml:space="preserve">
<path fill="#FFFFFF" opacity="1.000000" stroke="none" 
	d="
M161.000000,71.000000 
	C107.333351,71.000000 54.166698,71.000000 1.000036,71.000000 
	C1.000024,47.666691 1.000024,24.333380 1.000012,1.000051 
	C84.333290,1.000034 167.666580,1.000034 250.999908,1.000017 
	C250.999939,24.333281 250.999939,47.666561 250.999969,70.999924 
	C221.166672,71.000000 191.333328,71.000000 161.000000,71.000000 
M25.169500,15.034987 
	C23.777002,15.078012 22.384502,15.121037 20.164217,15.044713 
	C18.773371,15.083811 17.382524,15.122910 15.196286,15.043350 
	C14.127651,15.084659 13.059015,15.125967 11.113117,15.044629 
	C9.530238,15.044629 7.947360,15.044629 6.299224,15.044629 
	C6.299224,27.658644 6.299224,39.661884 6.299224,51.834171 
	C8.398743,51.834171 10.194342,51.834171 12.839200,51.964867 
	C14.553750,51.921600 16.268301,51.878334 18.836803,51.966560 
	C20.559923,51.922798 22.283043,51.879032 24.857063,51.955524 
	C26.573240,51.915180 28.289417,51.874836 30.856419,51.957600 
	C32.573723,51.918106 34.291023,51.878616 36.802990,51.959621 
	C37.870991,51.917980 38.938988,51.876343 40.884052,51.959152 
	C42.471817,51.889133 44.059578,51.819115 45.701241,51.746716 
	C45.701241,39.337624 45.701241,27.332689 45.701241,15.166644 
	C43.600254,15.166644 41.803684,15.166644 39.213478,15.037822 
	C38.145027,15.078706 37.076572,15.119590 35.157265,15.031491 
	C33.440022,15.076200 31.722780,15.120907 29.210207,15.038749 
	C28.139339,15.078621 27.068472,15.118493 25.169500,15.034987 
M179.489960,50.000000 
	C186.085220,49.661850 192.710037,49.576729 199.255417,48.811787 
	C200.940735,48.614830 202.376068,46.278728 203.926224,44.925304 
	C202.128693,44.536446 200.336685,44.119278 198.532074,43.766598 
	C196.687500,43.406094 194.830551,43.108856 192.979019,42.783924 
	C193.079666,42.189281 193.180313,41.594643 193.280960,41.000000 
	C195.067017,41.000000 196.853088,41.000000 198.639160,41.000000 
	C200.606369,41.000000 202.573578,41.000000 204.478470,41.000000 
	C205.718491,32.065624 203.658951,29.640766 192.736542,27.197500 
	C192.736542,22.254709 192.736542,17.185192 192.736542,12.256285 
	C144.616165,12.256285 97.019463,12.256285 49.305256,12.256285 
	C49.305256,24.901947 49.305256,37.289433 49.305256,50.000000 
	C92.570930,50.000000 135.532181,50.000000 179.489960,50.000000 
M228.483643,32.000000 
	C221.139679,32.000000 213.795715,32.000000 206.451752,32.000000 
	C206.395004,32.483212 206.338257,32.966423 206.281525,33.449635 
	C207.166046,34.288448 208.050568,35.127258 208.863144,35.897846 
	C207.934250,37.686050 207.092041,39.307373 205.894272,41.613167 
	C218.057098,41.613167 229.266754,41.613167 240.938751,41.613167 
	C240.938751,38.414169 240.938751,35.269718 240.938751,32.000000 
	C236.457672,32.000000 232.965912,32.000000 228.483643,32.000000 
z"/>
<path fill="#00D9BE" opacity="1.000000" stroke="none" 
	d="
M178.991699,50.000000 
	C135.532181,50.000000 92.570930,50.000000 49.305256,50.000000 
	C49.305256,37.289433 49.305256,24.901947 49.305256,12.256285 
	C97.019463,12.256285 144.616165,12.256285 192.736542,12.256285 
	C192.736542,17.185192 192.736542,22.254709 192.736542,27.197500 
	C203.658951,29.640766 205.718491,32.065624 204.478470,41.000000 
	C202.573578,41.000000 200.606369,41.000000 198.639160,41.000000 
	C196.853088,41.000000 195.067017,41.000000 193.280960,41.000000 
	C193.180313,41.594643 193.079666,42.189281 192.979019,42.783924 
	C194.830551,43.108856 196.687500,43.406094 198.532074,43.766598 
	C200.336685,44.119278 202.128693,44.536446 203.926224,44.925308 
	C202.376068,46.278728 200.940735,48.614830 199.255417,48.811787 
	C192.710037,49.576729 186.085220,49.661850 178.991699,50.000000 
z"/>
<path fill="#4FCAFF" opacity="1.000000" stroke="none" 
	d="
M228.978897,32.000000 
	C232.965912,32.000000 236.457672,32.000000 240.938751,32.000000 
	C240.938751,35.269718 240.938751,38.414169 240.938751,41.613167 
	C229.266754,41.613167 218.057098,41.613167 205.894272,41.613167 
	C207.092041,39.307373 207.934250,37.686050 208.863144,35.897846 
	C208.050568,35.127258 207.166046,34.288448 206.281525,33.449635 
	C206.338257,32.966423 206.395004,32.483212 206.451752,32.000000 
	C213.795715,32.000000 221.139679,32.000000 228.978897,32.000000 
z"/>
<path fill="#4BC2FF" opacity="1.000000" stroke="none" 
	d="
M11.989942,51.834171 
	C10.194342,51.834171 8.398743,51.834171 6.299224,51.834171 
	C6.299224,39.661884 6.299224,27.658644 6.299224,15.044629 
	C7.947360,15.044629 9.530238,15.044629 11.554781,15.562160 
	C11.994277,27.997850 11.992109,39.916012 11.989942,51.834171 
z"/>
<path fill="#3FFFE9" opacity="1.000000" stroke="none" 
	d="
M40.007114,15.166644 
	C41.803684,15.166644 43.600254,15.166644 45.701241,15.166644 
	C45.701241,27.332689 45.701241,39.337624 45.701241,51.746716 
	C44.059578,51.819115 42.471817,51.889133 40.445091,51.480087 
	C40.006458,39.056229 40.006786,27.111435 40.007114,15.166644 
z"/>
<path fill="#44FFF3" opacity="1.000000" stroke="none" 
	d="
M39.610298,15.102233 
	C40.006786,27.111435 40.006458,39.056229 40.006561,51.417862 
	C38.938988,51.876343 37.870991,51.917980 36.402729,51.441811 
	C35.905968,47.442814 35.809471,43.961632 35.833771,40.176426 
	C37.046074,38.229572 39.114037,36.724072 36.328449,34.680237 
	C35.922646,34.382492 35.960949,32.527527 36.409218,32.174385 
	C39.037273,30.104023 37.225655,28.572823 36.002998,26.466000 
	C36.002880,22.394873 36.005501,18.777674 36.008121,15.160474 
	C37.076572,15.119590 38.145027,15.078706 39.610298,15.102233 
z"/>
<path fill="#50CDFF" opacity="1.000000" stroke="none" 
	d="
M12.414571,51.899521 
	C11.992109,39.916012 11.994277,27.997850 11.993412,15.623484 
	C13.059015,15.125967 14.127651,15.084659 15.596818,15.531049 
	C16.329649,19.340708 16.661947,22.662668 16.801777,26.293861 
	C16.348360,28.337339 16.025719,30.065327 15.848929,31.808107 
	C15.737696,32.904629 16.322229,34.445953 15.775998,35.062702 
	C12.506513,38.754284 15.658456,39.842453 18.051527,41.790932 
	C18.016819,45.468803 17.999834,48.651936 17.982851,51.835068 
	C16.268301,51.878334 14.553750,51.921600 12.414571,51.899521 
z"/>
<path fill="#4BFCFD" opacity="1.000000" stroke="none" 
	d="
M35.582695,15.095983 
	C36.005501,18.777674 36.002880,22.394873 35.635262,26.368340 
	C32.431400,26.114363 29.004671,26.415457 28.779182,22.073658 
	C29.425961,19.615259 29.715748,17.390438 30.005537,15.165615 
	C31.722780,15.120907 33.440022,15.076200 35.582695,15.095983 
z"/>
<path fill="#4BFCFD" opacity="1.000000" stroke="none" 
	d="
M35.712971,40.480450 
	C35.809471,43.961632 35.905968,47.442814 36.005398,51.381561 
	C34.291023,51.878616 32.573723,51.918106 30.429237,51.465889 
	C29.497360,48.895138 28.992662,46.816090 28.639500,44.378426 
	C29.382177,39.483700 33.406162,41.661217 35.712971,40.480450 
z"/>
<path fill="#58DFFF" opacity="1.000000" stroke="none" 
	d="
M18.409828,51.900814 
	C17.999834,48.651936 18.016819,45.468803 18.367569,41.702305 
	C20.466377,42.372242 22.231422,43.625549 23.996193,45.316505 
	C23.999334,47.781193 24.002748,49.808231 24.006163,51.835270 
	C22.283043,51.879032 20.559923,51.922798 18.409828,51.900814 
z"/>
<path fill="#55DAFF" opacity="1.000000" stroke="none" 
	d="
M16.994246,25.984631 
	C16.661947,22.662668 16.329649,19.340708 15.994514,15.590378 
	C17.382524,15.122910 18.773371,15.083811 20.580439,15.530254 
	C21.576544,18.678896 22.156429,21.341995 22.643726,24.357780 
	C20.698839,25.135185 18.846542,25.559908 16.994246,25.984631 
z"/>
<path fill="#50F0FF" opacity="1.000000" stroke="none" 
	d="
M24.431614,51.895397 
	C24.002748,49.808231 23.999334,47.781193 24.375622,45.306973 
	C25.999537,44.818874 27.243750,44.777962 28.487965,44.737045 
	C28.992662,46.816090 29.497360,48.895138 30.003826,51.404339 
	C28.289417,51.874836 26.573240,51.915180 24.431614,51.895397 
z"/>
<path fill="#58DFFF" opacity="1.000000" stroke="none" 
	d="
M22.736313,24.005095 
	C22.156429,21.341995 21.576544,18.678896 20.994331,15.589930 
	C22.384502,15.121037 23.777002,15.078012 25.581955,15.484415 
	C25.660824,17.963306 25.327234,19.992769 24.718266,22.158630 
	C23.874027,22.865051 23.305170,23.435074 22.736313,24.005095 
z"/>
<path fill="#50F0FF" opacity="1.000000" stroke="none" 
	d="
M24.993647,22.022234 
	C25.327234,19.992769 25.660824,17.963306 25.996008,15.546103 
	C27.068472,15.118493 28.139339,15.078621 29.607872,15.102182 
	C29.715748,17.390438 29.425961,19.615259 28.444132,22.038601 
	C26.832609,22.165491 25.913128,22.093863 24.993647,22.022234 
z"/>
<path fill="#F6FEFF" opacity="1.000000" stroke="none" 
	d="
M24.718266,22.158630 
	C25.913128,22.093863 26.832609,22.165491 28.087143,22.272177 
	C29.004671,26.415457 32.431400,26.114363 35.638004,26.822269 
	C37.225655,28.572823 39.037273,30.104023 36.409218,32.174385 
	C35.960949,32.527527 35.922646,34.382492 36.328449,34.680237 
	C39.114037,36.724072 37.046074,38.229572 35.833771,40.176426 
	C33.406162,41.661217 29.382177,39.483700 28.639500,44.378426 
	C27.243750,44.777962 25.999537,44.818874 24.375895,44.869324 
	C22.231422,43.625549 20.466377,42.372242 18.385292,41.207565 
	C15.658456,39.842453 12.506513,38.754284 15.775998,35.062702 
	C16.322229,34.445953 15.737696,32.904629 15.848929,31.808107 
	C16.025719,30.065327 16.348360,28.337339 16.801777,26.293863 
	C18.846542,25.559908 20.698839,25.135185 22.643724,24.357780 
	C23.305170,23.435074 23.874027,22.865051 24.718266,22.158630 
M28.853643,30.184879 
	C26.817709,30.365673 24.781776,30.546467 22.188032,31.152988 
	C22.327843,33.068916 22.467655,34.984848 22.607468,36.900776 
	C24.785282,36.641586 26.963097,36.382397 29.729919,35.822292 
	C29.577614,34.129898 29.425308,32.437504 28.853643,30.184879 
z"/>
<path fill="#50F0FF" opacity="1.000000" stroke="none" 
	d="
M29.140911,36.123211 
	C26.963097,36.382397 24.785282,36.641586 22.607468,36.900776 
	C22.467655,34.984848 22.327843,33.068916 22.533142,31.010967 
	C22.878254,30.868946 23.010649,31.010649 23.007027,31.431744 
	C22.305735,37.118046 26.095926,35.878967 29.011749,36.007851 
	C29.054472,36.046677 29.140911,36.123211 29.140911,36.123211 
z"/>
<path fill="#50F0FF" opacity="1.000000" stroke="none" 
	d="
M22.812048,30.798103 
	C24.781776,30.546467 26.817709,30.365673 28.993406,30.530428 
	C29.133169,30.875977 28.993252,31.006748 28.566000,31.005360 
	C26.429382,31.006197 24.720015,31.008423 23.010649,31.010647 
	C23.010649,31.010649 22.878254,30.868946 22.812048,30.798103 
z"/>
<path fill="#50F0FF" opacity="1.000000" stroke="none" 
	d="
M29.203085,30.810543 
	C29.425308,32.437504 29.577614,34.129898 29.435415,35.972752 
	C29.140911,36.123211 29.054472,36.046677 29.021557,35.595100 
	C28.990177,33.764603 28.991714,32.385674 28.993252,31.006748 
	C28.993252,31.006748 29.133169,30.875977 29.203085,30.810543 
z"/>
<path fill="#53ECFF" opacity="1.000000" stroke="none" 
	d="
M28.566000,31.005360 
	C28.991714,32.385674 28.990177,33.764603 28.978836,35.556278 
	C26.095926,35.878967 22.305735,37.118046 23.007027,31.431744 
	C24.720015,31.008423 26.429382,31.006197 28.566000,31.005360 
z"/>
</svg>